name rise49.5252peak65.1548fall88.8305.mot
datacolumns 19
datarows 30
range 19.31493100000000 19.36325500000000
endheader
time	ground_force1_vx	ground_force1_vy	ground_force1_vz	ground_force1_px	ground_force1_py	ground_force1_pz	ground_force2_vx	ground_force2_vy	ground_force2_vz	ground_force2_px	ground_force2_py	ground_force2_pz	ground_torque1_x	ground_torque1_y	ground_torque1_z	ground_torque2_x	ground_torque2_y	ground_torque2_z	
19.31493100000000	0.44814700000000	678.31900299999995	43.74905300000000	0.23779100000000	0.00000000000000	0.12342000000000	0.00000000000000	0.00000000000000	0.00000000000000	0.00000000000000	0.00000000000000	0.00000000000000	0.00000000000000	19.89192700000000	0.00000000000000	0.00000000000000	0.00000000000000	0.00000000000000	
19.31658900000000	-0.02229700000000	678.86311000000001	43.84430100000000	0.23727600000000	0.00000000000000	0.12342700000000	0.00000000000000	0.00000000000000	0.00000000000000	0.00000000000000	0.00000000000000	0.00000000000000	0.00000000000000	20.03483600000000	0.00000000000000	0.00000000000000	0.00000000000000	0.00000000000000	
19.31825600000000	-0.50140900000000	679.48836200000005	43.94369900000000	0.23678000000000	0.00000000000000	0.12343200000000	0.00000000000000	0.00000000000000	0.00000000000000	0.00000000000000	0.00000000000000	0.00000000000000	0.00000000000000	20.18399300000000	0.00000000000000	0.00000000000000	0.00000000000000	0.00000000000000	
19.31992000000000	-0.98962500000000	680.19362000000001	44.04686900000000	0.23630000000000	0.00000000000000	0.12343500000000	0.00000000000000	0.00000000000000	0.00000000000000	0.00000000000000	0.00000000000000	0.00000000000000	0.00000000000000	20.33909500000000	0.00000000000000	0.00000000000000	0.00000000000000	0.00000000000000	
19.32158800000000	-1.48735900000000	680.97772599999996	44.15344800000000	0.23583300000000	0.00000000000000	0.12343800000000	0.00000000000000	0.00000000000000	0.00000000000000	0.00000000000000	0.00000000000000	0.00000000000000	0.00000000000000	20.49983500000000	0.00000000000000	0.00000000000000	0.00000000000000	0.00000000000000	
19.32326000000000	-1.99499500000000	681.83950700000003	44.26309600000000	0.23537600000000	0.00000000000000	0.12343800000000	0.00000000000000	0.00000000000000	0.00000000000000	0.00000000000000	0.00000000000000	0.00000000000000	0.00000000000000	20.66591200000000	0.00000000000000	0.00000000000000	0.00000000000000	0.00000000000000	
19.32492600000000	-2.51288700000000	682.77777700000001	44.37549200000000	0.23492600000000	0.00000000000000	0.12343800000000	0.00000000000000	0.00000000000000	0.00000000000000	0.00000000000000	0.00000000000000	0.00000000000000	0.00000000000000	20.83702600000000	0.00000000000000	0.00000000000000	0.00000000000000	0.00000000000000	
19.32658500000000	-3.04135900000000	683.79133999999999	44.49033900000000	0.23447800000000	0.00000000000000	0.12343600000000	0.00000000000000	0.00000000000000	0.00000000000000	0.00000000000000	0.00000000000000	0.00000000000000	0.00000000000000	21.01287700000000	0.00000000000000	0.00000000000000	0.00000000000000	0.00000000000000	
19.32825300000000	-3.58069700000000	684.87899100000004	44.60735900000000	0.23403100000000	0.00000000000000	0.12343400000000	0.00000000000000	0.00000000000000	0.00000000000000	0.00000000000000	0.00000000000000	0.00000000000000	0.00000000000000	21.19317400000000	0.00000000000000	0.00000000000000	0.00000000000000	0.00000000000000	
19.32991800000000	-4.13115100000000	686.03952100000004	44.72629900000000	0.23358000000000	0.00000000000000	0.12343000000000	0.00000000000000	0.00000000000000	0.00000000000000	0.00000000000000	0.00000000000000	0.00000000000000	0.00000000000000	21.37762600000000	0.00000000000000	0.00000000000000	0.00000000000000	0.00000000000000	
19.33159300000000	-4.69293300000000	687.27171699999997	44.84692400000000	0.23312400000000	0.00000000000000	0.12342500000000	0.00000000000000	0.00000000000000	0.00000000000000	0.00000000000000	0.00000000000000	0.00000000000000	0.00000000000000	21.56594900000000	0.00000000000000	0.00000000000000	0.00000000000000	0.00000000000000	
19.33325800000000	-5.26621200000000	688.57436199999995	44.96902700000000	0.23265800000000	0.00000000000000	0.12342000000000	0.00000000000000	0.00000000000000	0.00000000000000	0.00000000000000	0.00000000000000	0.00000000000000	0.00000000000000	21.75786400000000	0.00000000000000	0.00000000000000	0.00000000000000	0.00000000000000	
19.33492600000000	-5.85111400000000	689.94623500000000	45.09242000000000	0.23218100000000	0.00000000000000	0.12341400000000	0.00000000000000	0.00000000000000	0.00000000000000	0.00000000000000	0.00000000000000	0.00000000000000	0.00000000000000	21.95309800000000	0.00000000000000	0.00000000000000	0.00000000000000	0.00000000000000	
19.33659800000000	-6.44772300000000	691.38611300000002	45.21693700000000	0.23168900000000	0.00000000000000	0.12340700000000	0.00000000000000	0.00000000000000	0.00000000000000	0.00000000000000	0.00000000000000	0.00000000000000	0.00000000000000	22.15138400000000	0.00000000000000	0.00000000000000	0.00000000000000	0.00000000000000	
19.33825200000000	-7.05607400000000	692.89276700000005	45.34243700000000	0.23118000000000	0.00000000000000	0.12340000000000	0.00000000000000	0.00000000000000	0.00000000000000	0.00000000000000	0.00000000000000	0.00000000000000	0.00000000000000	22.35246200000000	0.00000000000000	0.00000000000000	0.00000000000000	0.00000000000000	
19.33993000000000	-7.67615500000000	694.46496500000001	45.46879800000000	0.23065200000000	0.00000000000000	0.12339300000000	0.00000000000000	0.00000000000000	0.00000000000000	0.00000000000000	0.00000000000000	0.00000000000000	0.00000000000000	22.55607700000000	0.00000000000000	0.00000000000000	0.00000000000000	0.00000000000000	
19.34158400000000	-8.30790700000000	696.10146799999995	45.59592300000000	0.23010100000000	0.00000000000000	0.12338600000000	0.00000000000000	0.00000000000000	0.00000000000000	0.00000000000000	0.00000000000000	0.00000000000000	0.00000000000000	22.76198600000000	0.00000000000000	0.00000000000000	0.00000000000000	0.00000000000000	
19.34325700000000	-8.95122000000000	697.80102799999997	45.72373400000000	0.22952700000000	0.00000000000000	0.12337800000000	0.00000000000000	0.00000000000000	0.00000000000000	0.00000000000000	0.00000000000000	0.00000000000000	0.00000000000000	22.96994800000000	0.00000000000000	0.00000000000000	0.00000000000000	0.00000000000000	
19.34492900000000	-9.60593300000000	699.56239000000005	45.85217400000000	0.22892800000000	0.00000000000000	0.12337000000000	0.00000000000000	0.00000000000000	0.00000000000000	0.00000000000000	0.00000000000000	0.00000000000000	0.00000000000000	23.17973200000000	0.00000000000000	0.00000000000000	0.00000000000000	0.00000000000000	
19.34658600000000	-10.27183600000000	701.38427999999999	45.98120700000000	0.22830100000000	0.00000000000000	0.12336200000000	0.00000000000000	0.00000000000000	0.00000000000000	0.00000000000000	0.00000000000000	0.00000000000000	0.00000000000000	23.39111600000000	0.00000000000000	0.00000000000000	0.00000000000000	0.00000000000000	
19.34825300000000	-10.94866600000000	703.26541399999996	46.11081700000000	0.22764600000000	0.00000000000000	0.12335500000000	0.00000000000000	0.00000000000000	0.00000000000000	0.00000000000000	0.00000000000000	0.00000000000000	0.00000000000000	23.60388100000000	0.00000000000000	0.00000000000000	0.00000000000000	0.00000000000000	
19.34991900000000	-11.63611200000000	705.20448399999998	46.24100500000000	0.22696200000000	0.00000000000000	0.12334700000000	0.00000000000000	0.00000000000000	0.00000000000000	0.00000000000000	0.00000000000000	0.00000000000000	0.00000000000000	23.81782100000000	0.00000000000000	0.00000000000000	0.00000000000000	0.00000000000000	
19.35158500000000	-12.33380800000000	707.20016299999997	46.37179500000000	0.22624600000000	0.00000000000000	0.12333900000000	0.00000000000000	0.00000000000000	0.00000000000000	0.00000000000000	0.00000000000000	0.00000000000000	0.00000000000000	24.03273300000000	0.00000000000000	0.00000000000000	0.00000000000000	0.00000000000000	
19.35325400000000	-13.04134200000000	709.25109499999996	46.50322300000000	0.22549900000000	0.00000000000000	0.12333200000000	0.00000000000000	0.00000000000000	0.00000000000000	0.00000000000000	0.00000000000000	0.00000000000000	0.00000000000000	24.24842300000000	0.00000000000000	0.00000000000000	0.00000000000000	0.00000000000000	
19.35493800000000	-13.75824800000000	711.35589600000003	46.63534700000000	0.22472100000000	0.00000000000000	0.12332500000000	0.00000000000000	0.00000000000000	0.00000000000000	0.00000000000000	0.00000000000000	0.00000000000000	0.00000000000000	24.46470400000000	0.00000000000000	0.00000000000000	0.00000000000000	0.00000000000000	
19.35659100000000	-14.48401400000000	713.51314600000001	46.76823900000000	0.22391100000000	0.00000000000000	0.12331900000000	0.00000000000000	0.00000000000000	0.00000000000000	0.00000000000000	0.00000000000000	0.00000000000000	0.00000000000000	24.68139600000000	0.00000000000000	0.00000000000000	0.00000000000000	0.00000000000000	
19.35825700000000	-15.21808000000000	715.72138700000005	46.90198600000000	0.22306800000000	0.00000000000000	0.12331200000000	0.00000000000000	0.00000000000000	0.00000000000000	0.00000000000000	0.00000000000000	0.00000000000000	0.00000000000000	24.89832500000000	0.00000000000000	0.00000000000000	0.00000000000000	0.00000000000000	
19.35992300000000	-15.95983900000000	717.97911899999997	47.03669000000000	0.22219400000000	0.00000000000000	0.12330600000000	0.00000000000000	0.00000000000000	0.00000000000000	0.00000000000000	0.00000000000000	0.00000000000000	0.00000000000000	25.11532300000000	0.00000000000000	0.00000000000000	0.00000000000000	0.00000000000000	
19.36158600000000	-16.70864100000000	720.28479400000003	47.17246800000000	0.22128900000000	0.00000000000000	0.12330000000000	0.00000000000000	0.00000000000000	0.00000000000000	0.00000000000000	0.00000000000000	0.00000000000000	0.00000000000000	25.33222800000000	0.00000000000000	0.00000000000000	0.00000000000000	0.00000000000000	
19.36325500000000	-17.46379200000000	722.63681299999996	47.30944800000000	0.22035300000000	0.00000000000000	0.12329500000000	0.00000000000000	0.00000000000000	0.00000000000000	0.00000000000000	0.00000000000000	0.00000000000000	0.00000000000000	25.54888400000000	0.00000000000000	0.00000000000000	0.00000000000000	0.00000000000000	
